<?xml version="1.0" encoding="utf-8" ?>
<!DOCTYPE svg PUBLIC "-//W3C//DTD SVG 1.1//EN" "http://www.w3.org/Graphics/SVG/1.1/DTD/svg11.dtd">
<svg height="260" version="1.1" width="389" xmlns="http://www.w3.org/2000/svg">
<polygon fill="#ffffff" points="14,102 316,102 316,125 365,125 365,245 14,245 14,102" stroke="#ffffff" stroke-width="1"/>
<rect fill="none" height="23" stroke="#000000" stroke-width="1" width="302" x="14" y="102"/>
<text font-family="Dialog" font-size="12" x="19" y="115">
PitFail (server side)</text>
<rect fill="none" height="120" stroke="#000000" stroke-width="1" width="351" x="14" y="125"/>
<rect fill="#ffffff" height="24" stroke="#ffffff" stroke-width="1" width="78" x="206" y="14"/>
<rect fill="none" height="24" stroke="#000000" stroke-width="1" width="78" x="206" y="14"/>
<text font-family="Dialog" font-size="12" x="211" y="27">
yahoo.com</text>
<rect fill="#ffffff" height="48" stroke="#ffffff" stroke-width="1" width="104" x="206" y="158"/>
<rect fill="none" height="48" stroke="#000000" stroke-width="1" width="104" x="206" y="158"/>
<text font-family="Dialog" font-size="12" x="216" y="171">
Price Fetcher</text>
<rect fill="#000000" height="1" stroke="#000000" stroke-width="1" width="104" x="206" y="181"/>
<text font-family="Dialog" font-size="12" x="210" y="195">
- cached prices</text>
<polyline fill="none" points="214,158 214,38" stroke="#000000" stroke-width="1"/>
<line fill="#000000" stroke="#000000" stroke-width="1" x1="221" x2="214" y1="50" y2="38"/>
<line fill="#000000" stroke="#000000" stroke-width="1" x1="207" x2="214" y1="50" y2="38"/>
<text font-family="Dialog" font-size="12" x="124" y="76">
requests</text>
<polyline fill="none" points="278,38 278,158" stroke="#000000" stroke-width="1"/>
<line fill="#000000" stroke="#000000" stroke-width="1" x1="271" x2="278" y1="146" y2="158"/>
<line fill="#000000" stroke="#000000" stroke-width="1" x1="285" x2="278" y1="146" y2="158"/>
<text font-family="Dialog" font-size="12" x="286" y="78">
informs</text>
<rect fill="#ffffff" height="24" stroke="#ffffff" stroke-width="1" width="90" x="38" y="166"/>
<rect fill="none" height="24" stroke="#000000" stroke-width="1" width="90" x="38" y="166"/>
<text font-family="Dialog" font-size="12" x="43" y="179">
Stock Trader</text>
<polyline fill="none" points="128,174 206,174" stroke="#000000" stroke-width="1"/>
<line fill="#000000" stroke="#000000" stroke-width="1" x1="194" x2="206" y1="181" y2="174"/>
<line fill="#000000" stroke="#000000" stroke-width="1" x1="194" x2="206" y1="167" y2="174"/>
<text font-family="Dialog" font-size="12" x="132" y="164">
requests</text>
<polyline fill="none" points="206,190 128,190" stroke="#000000" stroke-width="1"/>
<line fill="#000000" stroke="#000000" stroke-width="1" x1="140" x2="128" y1="183" y2="190"/>
<line fill="#000000" stroke="#000000" stroke-width="1" x1="140" x2="128" y1="197" y2="190"/>
<text font-family="Dialog" font-size="12" x="142" y="207">
informs</text>
</svg>
