<?xml version="1.0" encoding="utf-8" ?>
<!DOCTYPE svg PUBLIC "-//W3C//DTD SVG 1.1//EN" "http://www.w3.org/Graphics/SVG/1.1/DTD/svg11.dtd">
<svg height="596" version="1.1" width="645" xmlns="http://www.w3.org/2000/svg">
<polygon fill="#ffffff" points="14,246 468,246 468,269 517,269 517,581 14,581 14,246" stroke="#ffffff" stroke-width="1"/>
<rect fill="none" height="23" stroke="#000000" stroke-width="1" width="454" x="14" y="246"/>
<text font-family="Dialog" font-size="12" x="19" y="259">
PitFail (server side)</text>
<rect fill="none" height="312" stroke="#000000" stroke-width="1" width="503" x="14" y="269"/>
<rect fill="#ffffff" height="24" stroke="#ffffff" stroke-width="1" width="81" x="214" y="142"/>
<rect fill="none" height="24" stroke="#000000" stroke-width="1" width="81" x="214" y="142"/>
<text font-family="Dialog" font-size="12" x="219" y="155">
Web Server</text>
<rect fill="#ffffff" height="24" stroke="#ffffff" stroke-width="1" width="109" x="214" y="190"/>
<rect fill="none" height="24" stroke="#000000" stroke-width="1" width="109" x="214" y="190"/>
<text font-family="Dialog" font-size="12" x="219" y="203">
Web Framework</text>
<rect fill="#ffffff" height="24" stroke="#ffffff" stroke-width="1" width="66" x="222" y="62"/>
<rect fill="none" height="24" stroke="#000000" stroke-width="1" width="66" x="222" y="62"/>
<text font-family="Dialog" font-size="12" x="230" y="75">
Browser</text>
<polyline fill="none" points="246,86 246,142" stroke="#000000" stroke-width="1"/>
<line fill="#000000" stroke="#000000" stroke-width="1" x1="239" x2="246" y1="130" y2="142"/>
<line fill="#000000" stroke="#000000" stroke-width="1" x1="253" x2="246" y1="130" y2="142"/>
<text font-family="Dialog" font-size="12" x="114" y="119">
Sends request to</text>
<polyline fill="none" points="246,166 246,190" stroke="#000000" stroke-width="1"/>
<line fill="#000000" stroke="#000000" stroke-width="1" x1="239" x2="246" y1="178" y2="190"/>
<line fill="#000000" stroke="#000000" stroke-width="1" x1="253" x2="246" y1="178" y2="190"/>
<rect fill="#ffffff" height="64" stroke="#ffffff" stroke-width="1" width="152" x="190" y="326"/>
<rect fill="none" height="64" stroke="#000000" stroke-width="1" width="152" x="190" y="326"/>
<text font-family="Dialog" font-size="12" x="213" y="339">
OAuth Consumer</text>
<rect fill="#000000" height="1" stroke="#000000" stroke-width="1" width="152" x="190" y="349"/>
<text font-family="Dialog" font-size="12" x="194" y="363">
- session secrets</text>
<text font-family="Dialog" font-size="12" x="194" y="379">
- authentication status</text>
<polyline fill="none" points="238,214 238,326" stroke="#000000" stroke-width="1"/>
<line fill="#000000" stroke="#000000" stroke-width="1" x1="231" x2="238" y1="314" y2="326"/>
<line fill="#000000" stroke="#000000" stroke-width="1" x1="245" x2="238" y1="314" y2="326"/>
<text font-family="Dialog" font-size="12" x="118" y="296">
delegates request</text>
<rect fill="#ffffff" height="24" stroke="#ffffff" stroke-width="1" width="80" x="550" y="302"/>
<rect fill="none" height="24" stroke="#000000" stroke-width="1" width="80" x="550" y="302"/>
<text font-family="Dialog" font-size="12" x="555" y="315">
twitter.com</text>
<polyline fill="none" points="302,326 302,214" stroke="#000000" stroke-width="1"/>
<line fill="#000000" stroke="#000000" stroke-width="1" x1="309" x2="302" y1="226" y2="214"/>
<line fill="#000000" stroke="#000000" stroke-width="1" x1="295" x2="302" y1="226" y2="214"/>
<text font-family="Dialog" font-size="12" x="319" y="296">
returns redirect</text>
<polyline fill="none" points="270,190 270,166" stroke="#000000" stroke-width="1"/>
<line fill="#000000" stroke="#000000" stroke-width="1" x1="277" x2="270" y1="178" y2="166"/>
<line fill="#000000" stroke="#000000" stroke-width="1" x1="263" x2="270" y1="178" y2="166"/>
<polyline fill="none" points="270,142 270,86" stroke="#000000" stroke-width="1"/>
<line fill="#000000" stroke="#000000" stroke-width="1" x1="277" x2="270" y1="98" y2="86"/>
<line fill="#000000" stroke="#000000" stroke-width="1" x1="263" x2="270" y1="98" y2="86"/>
<text font-family="Dialog" font-size="12" x="287" y="121">
Sends response to</text>
<polyline fill="none" points="342,326 550,326" stroke="#000000" stroke-width="1"/>
<line fill="#000000" stroke="#000000" stroke-width="1" x1="538" x2="550" y1="333" y2="326"/>
<line fill="#000000" stroke="#000000" stroke-width="1" x1="538" x2="550" y1="319" y2="326"/>
<text font-family="Dialog" font-size="12" x="368" y="352">
sends request to</text>
<polyline fill="none" points="288,78 598,78 598,302" stroke="#000000" stroke-width="1"/>
<line fill="#000000" stroke="#000000" stroke-width="1" x1="591" x2="598" y1="290" y2="302"/>
<line fill="#000000" stroke="#000000" stroke-width="1" x1="605" x2="598" y1="290" y2="302"/>
<rect fill="#ffffff" height="24" stroke="#ffffff" stroke-width="1" width="66" x="222" y="14"/>
<rect fill="none" height="24" stroke="#000000" stroke-width="1" width="66" x="222" y="14"/>
<text font-family="Dialog" font-size="12" x="240" y="27">
User</text>
<polyline fill="none" points="254,38 254,62" stroke="#000000" stroke-width="1"/>
<rect fill="#ffffff" height="48" stroke="#ffffff" stroke-width="1" width="102" x="198" y="430"/>
<rect fill="none" height="48" stroke="#000000" stroke-width="1" width="102" x="198" y="430"/>
<text font-family="Dialog" font-size="12" x="203" y="443">
Login Manager</text>
<rect fill="#000000" height="1" stroke="#000000" stroke-width="1" width="102" x="198" y="453"/>
<text font-family="Dialog" font-size="12" x="202" y="467">
- current login</text>
<polyline fill="none" points="270,390 270,430" stroke="#000000" stroke-width="1"/>
<line fill="#000000" stroke="#000000" stroke-width="1" x1="263" x2="270" y1="418" y2="430"/>
<line fill="#000000" stroke="#000000" stroke-width="1" x1="277" x2="270" y1="418" y2="430"/>
<text font-family="Dialog" font-size="12" x="274" y="414">
informs</text>
<rect fill="#ffffff" height="24" stroke="#ffffff" stroke-width="1" width="66" x="214" y="518"/>
<rect fill="none" height="24" stroke="#000000" stroke-width="1" width="66" x="214" y="518"/>
<text font-family="Dialog" font-size="12" x="228" y="531">
Model</text>
<polyline fill="none" points="270,478 270,518" stroke="#000000" stroke-width="1"/>
<line fill="#000000" stroke="#000000" stroke-width="1" x1="263" x2="270" y1="506" y2="518"/>
<line fill="#000000" stroke="#000000" stroke-width="1" x1="277" x2="270" y1="506" y2="518"/>
<text font-family="Dialog" font-size="12" x="283" y="504">
manipulates</text>
<polyline fill="none" points="230,518 230,478" stroke="#000000" stroke-width="1"/>
<line fill="#000000" stroke="#000000" stroke-width="1" x1="237" x2="230" y1="490" y2="478"/>
<line fill="#000000" stroke="#000000" stroke-width="1" x1="223" x2="230" y1="490" y2="478"/>
<text font-family="Dialog" font-size="12" x="140" y="506">
informs</text>
<rect fill="#ffffff" height="24" stroke="#ffffff" stroke-width="1" width="104" x="38" y="326"/>
<rect fill="none" height="24" stroke="#000000" stroke-width="1" width="104" x="38" y="326"/>
<text font-family="Dialog" font-size="12" x="43" y="339">
Page Renderer</text>
<polyline fill="none" points="198,430 142,390 142,350" stroke="#000000" stroke-width="1"/>
<line fill="#000000" stroke="#000000" stroke-width="1" x1="149" x2="142" y1="362" y2="350"/>
<line fill="#000000" stroke="#000000" stroke-width="1" x1="135" x2="142" y1="362" y2="350"/>
<text font-family="Dialog" font-size="12" x="67" y="414">
informs</text>
<polyline fill="none" points="94,326 94,206 214,206" stroke="#000000" stroke-width="1"/>
<line fill="#000000" stroke="#000000" stroke-width="1" x1="202" x2="214" y1="213" y2="206"/>
<line fill="#000000" stroke="#000000" stroke-width="1" x1="202" x2="214" y1="199" y2="206"/>
</svg>
