<?xml version="1.0" encoding="utf-8" ?>
<!DOCTYPE svg PUBLIC "-//W3C//DTD SVG 1.1//EN" "http://www.w3.org/Graphics/SVG/1.1/DTD/svg11.dtd">
<svg height="380" version="1.1" width="540" xmlns="http://www.w3.org/2000/svg">
<polygon fill="#ffffff" points="14,14 476,14 476,37 525,37 525,149 14,149 14,14" stroke="#ffffff" stroke-width="1"/>
<rect fill="none" height="23" stroke="#000000" stroke-width="1" width="462" x="14" y="14"/>
<text font-family="Dialog" font-size="12" x="19" y="27">
PitFail (server side)</text>
<rect fill="none" height="112" stroke="#000000" stroke-width="1" width="511" x="14" y="37"/>
<rect fill="#ffffff" height="48" stroke="#ffffff" stroke-width="1" width="123" x="190" y="70"/>
<rect fill="none" height="48" stroke="#000000" stroke-width="1" width="123" x="190" y="70"/>
<text font-family="Dialog" font-size="12" x="233" y="83">
Model</text>
<rect fill="#000000" height="1" stroke="#000000" stroke-width="1" width="123" x="190" y="93"/>
<text font-family="Dialog" font-size="12" x="194" y="107">
- database handle</text>
<rect fill="#ffffff" height="24" stroke="#ffffff" stroke-width="1" width="66" x="214" y="198"/>
<rect fill="none" height="24" stroke="#000000" stroke-width="1" width="66" x="214" y="198"/>
<text font-family="Dialog" font-size="12" x="228" y="211">
JODBC</text>
<polyline fill="none" points="222,118 222,198" stroke="#000000" stroke-width="1"/>
<line fill="#000000" stroke="#000000" stroke-width="1" x1="215" x2="222" y1="186" y2="198"/>
<line fill="#000000" stroke="#000000" stroke-width="1" x1="229" x2="222" y1="186" y2="198"/>
<text font-family="Dialog" font-size="12" x="126" y="179">
Sends query</text>
<polyline fill="none" points="270,198 270,118" stroke="#000000" stroke-width="1"/>
<line fill="#000000" stroke="#000000" stroke-width="1" x1="277" x2="270" y1="130" y2="118"/>
<line fill="#000000" stroke="#000000" stroke-width="1" x1="263" x2="270" y1="130" y2="118"/>
<text font-family="Dialog" font-size="12" x="273" y="186">
returns structured data</text>
<rect fill="#ffffff" height="24" stroke="#ffffff" stroke-width="1" width="88" x="206" y="254"/>
<rect fill="none" height="24" stroke="#000000" stroke-width="1" width="88" x="206" y="254"/>
<text font-family="Dialog" font-size="12" x="211" y="267">
SQLite driver</text>
<polyline fill="none" points="222,222 222,254" stroke="#000000" stroke-width="1"/>
<line fill="#000000" stroke="#000000" stroke-width="1" x1="215" x2="222" y1="242" y2="254"/>
<line fill="#000000" stroke="#000000" stroke-width="1" x1="229" x2="222" y1="242" y2="254"/>
<text font-family="Dialog" font-size="12" x="122" y="243">
Sends query</text>
<polyline fill="none" points="270,254 270,222" stroke="#000000" stroke-width="1"/>
<line fill="#000000" stroke="#000000" stroke-width="1" x1="277" x2="270" y1="234" y2="222"/>
<line fill="#000000" stroke="#000000" stroke-width="1" x1="263" x2="270" y1="234" y2="222"/>
<text font-family="Dialog" font-size="12" x="273" y="242">
returns structured data</text>
<rect fill="#ffffff" height="48" stroke="#ffffff" stroke-width="1" width="71" x="214" y="318"/>
<rect fill="none" height="48" stroke="#000000" stroke-width="1" width="71" x="214" y="318"/>
<text font-family="Dialog" font-size="12" x="219" y="331">
Database</text>
<rect fill="#000000" height="1" stroke="#000000" stroke-width="1" width="71" x="214" y="341"/>
<text font-family="Dialog" font-size="12" x="218" y="355">
- tables</text>
<polyline fill="none" points="222,278 222,318" stroke="#000000" stroke-width="1"/>
<line fill="#000000" stroke="#000000" stroke-width="1" x1="215" x2="222" y1="306" y2="318"/>
<line fill="#000000" stroke="#000000" stroke-width="1" x1="229" x2="222" y1="306" y2="318"/>
<text font-family="Dialog" font-size="12" x="130" y="303">
manipulates</text>
<polyline fill="none" points="278,318 278,278" stroke="#000000" stroke-width="1"/>
<line fill="#000000" stroke="#000000" stroke-width="1" x1="285" x2="278" y1="290" y2="278"/>
<line fill="#000000" stroke="#000000" stroke-width="1" x1="271" x2="278" y1="290" y2="278"/>
<text font-family="Dialog" font-size="12" x="294" y="307">
informs</text>
</svg>
