<?xml version="1.0" encoding="utf-8" ?>
<!DOCTYPE svg PUBLIC "-//W3C//DTD SVG 1.1//EN" "http://www.w3.org/Graphics/SVG/1.1/DTD/svg11.dtd">
<svg height="452" version="1.1" width="580" xmlns="http://www.w3.org/2000/svg">
<polygon fill="#ffffff" points="14,134 484,134 484,157 533,157 533,437 14,437 14,134" stroke="#ffffff" stroke-width="1"/>
<rect fill="none" height="23" stroke="#000000" stroke-width="1" width="470" x="14" y="134"/>
<text font-family="Dialog" font-size="12" x="19" y="147">
PitFail (server side)</text>
<rect fill="none" height="280" stroke="#000000" stroke-width="1" width="519" x="14" y="157"/>
<rect fill="#ffffff" height="24" stroke="#ffffff" stroke-width="1" width="80" x="334" y="94"/>
<rect fill="none" height="24" stroke="#000000" stroke-width="1" width="80" x="334" y="94"/>
<text font-family="Dialog" font-size="12" x="339" y="107">
twitter.com</text>
<rect fill="#ffffff" height="24" stroke="#ffffff" stroke-width="1" width="66" x="342" y="54"/>
<rect fill="none" height="24" stroke="#000000" stroke-width="1" width="66" x="342" y="54"/>
<text font-family="Dialog" font-size="12" x="350" y="67">
Browser</text>
<rect fill="#ffffff" height="24" stroke="#ffffff" stroke-width="1" width="66" x="342" y="14"/>
<rect fill="none" height="24" stroke="#000000" stroke-width="1" width="66" x="342" y="14"/>
<text font-family="Dialog" font-size="12" x="360" y="27">
User</text>
<polyline fill="none" points="374,38 374,54" stroke="#000000" stroke-width="1"/>
<polyline fill="none" points="374,78 374,94" stroke="#000000" stroke-width="1"/>
<rect fill="#ffffff" height="24" stroke="#ffffff" stroke-width="1" width="106" x="310" y="206"/>
<rect fill="none" height="24" stroke="#000000" stroke-width="1" width="106" x="310" y="206"/>
<text font-family="Dialog" font-size="12" x="315" y="219">
Twitter Listener</text>
<polyline fill="none" points="384,206 384,118" stroke="#000000" stroke-width="1"/>
<line fill="#000000" stroke="#000000" stroke-width="1" x1="391" x2="384" y1="130" y2="118"/>
<line fill="#000000" stroke="#000000" stroke-width="1" x1="377" x2="384" y1="130" y2="118"/>
<text font-family="Dialog" font-size="12" x="389" y="186">
sends tweets</text>
<rect fill="#ffffff" height="24" stroke="#ffffff" stroke-width="1" width="78" x="326" y="278"/>
<rect fill="none" height="24" stroke="#000000" stroke-width="1" width="78" x="326" y="278"/>
<text font-family="Dialog" font-size="12" x="331" y="291">
Interpreter</text>
<rect fill="#ffffff" height="24" stroke="#ffffff" stroke-width="1" width="66" x="326" y="406"/>
<rect fill="none" height="24" stroke="#000000" stroke-width="1" width="66" x="326" y="406"/>
<text font-family="Dialog" font-size="12" x="338" y="419">
Parser</text>
<polyline fill="none" points="350,118 350,206" stroke="#000000" stroke-width="1"/>
<line fill="#000000" stroke="#000000" stroke-width="1" x1="343" x2="350" y1="194" y2="206"/>
<line fill="#000000" stroke="#000000" stroke-width="1" x1="357" x2="350" y1="194" y2="206"/>
<text font-family="Dialog" font-size="12" x="244" y="186">
sends tweets</text>
<polyline fill="none" points="342,230 342,278" stroke="#000000" stroke-width="1"/>
<line fill="#000000" stroke="#000000" stroke-width="1" x1="335" x2="342" y1="266" y2="278"/>
<line fill="#000000" stroke="#000000" stroke-width="1" x1="349" x2="342" y1="266" y2="278"/>
<text font-family="Dialog" font-size="12" x="240" y="257">
sends text</text>
<polyline fill="none" points="390,278 390,230" stroke="#000000" stroke-width="1"/>
<line fill="#000000" stroke="#000000" stroke-width="1" x1="397" x2="390" y1="242" y2="230"/>
<line fill="#000000" stroke="#000000" stroke-width="1" x1="383" x2="390" y1="242" y2="230"/>
<text font-family="Dialog" font-size="12" x="394" y="258">
sends text</text>
<polyline fill="none" points="342,302 342,406" stroke="#000000" stroke-width="1"/>
<line fill="#000000" stroke="#000000" stroke-width="1" x1="335" x2="342" y1="394" y2="406"/>
<line fill="#000000" stroke="#000000" stroke-width="1" x1="349" x2="342" y1="394" y2="406"/>
<text font-family="Dialog" font-size="12" x="241" y="384">
sends text</text>
<polyline fill="none" points="382,406 382,302" stroke="#000000" stroke-width="1"/>
<line fill="#000000" stroke="#000000" stroke-width="1" x1="389" x2="382" y1="314" y2="302"/>
<line fill="#000000" stroke="#000000" stroke-width="1" x1="375" x2="382" y1="314" y2="302"/>
<text font-family="Dialog" font-size="12" x="386" y="373">
sends structure</text>
<rect fill="#ffffff" height="24" stroke="#ffffff" stroke-width="1" width="90" x="94" y="286"/>
<rect fill="none" height="24" stroke="#000000" stroke-width="1" width="90" x="94" y="286"/>
<text font-family="Dialog" font-size="12" x="99" y="299">
Stock Trader</text>
<polyline fill="none" points="326,286 184,286" stroke="#000000" stroke-width="1"/>
<line fill="#000000" stroke="#000000" stroke-width="1" x1="196" x2="184" y1="279" y2="286"/>
<line fill="#000000" stroke="#000000" stroke-width="1" x1="196" x2="184" y1="293" y2="286"/>
<text font-family="Dialog" font-size="12" x="223" y="277">
sends operation</text>
<rect fill="#ffffff" height="24" stroke="#ffffff" stroke-width="1" width="66" x="102" y="350"/>
<rect fill="none" height="24" stroke="#000000" stroke-width="1" width="66" x="102" y="350"/>
<text font-family="Dialog" font-size="12" x="116" y="363">
Model</text>
<polyline fill="none" points="110,310 110,350" stroke="#000000" stroke-width="1"/>
<line fill="#000000" stroke="#000000" stroke-width="1" x1="103" x2="110" y1="338" y2="350"/>
<line fill="#000000" stroke="#000000" stroke-width="1" x1="117" x2="110" y1="338" y2="350"/>
<text font-family="Dialog" font-size="12" x="18" y="335">
manipulates</text>
<polyline fill="none" points="150,350 150,310" stroke="#000000" stroke-width="1"/>
<line fill="#000000" stroke="#000000" stroke-width="1" x1="157" x2="150" y1="322" y2="310"/>
<line fill="#000000" stroke="#000000" stroke-width="1" x1="143" x2="150" y1="322" y2="310"/>
<text font-family="Dialog" font-size="12" x="153" y="339">
informs</text>
<ellipse cx="148" cy="330" fill="#000000" rx="0.5" ry="0.5" stroke="#000000" stroke-width="1"/>
<ellipse cx="149" cy="331" fill="#ffffff" rx="-0.5" ry="-0.5" stroke="#ffffff" stroke-width="1"/>
<polyline fill="none" points="184,302 326,302" stroke="#000000" stroke-width="1"/>
<line fill="#000000" stroke="#000000" stroke-width="1" x1="314" x2="326" y1="309" y2="302"/>
<line fill="#000000" stroke="#000000" stroke-width="1" x1="314" x2="326" y1="295" y2="302"/>
<text font-family="Dialog" font-size="12" x="213" y="318">
sends status</text>
</svg>
