<?xml version="1.0" encoding="utf-8" ?>
<!DOCTYPE svg PUBLIC "-//W3C//DTD SVG 1.1//EN" "http://www.w3.org/Graphics/SVG/1.1/DTD/svg11.dtd">
<svg height="468" version="1.1" width="541" xmlns="http://www.w3.org/2000/svg">
<polygon fill="#ffffff" points="14,198 476,198 476,221 525,221 525,453 14,453 14,198" stroke="#ffffff" stroke-width="1"/>
<rect fill="none" height="23" stroke="#000000" stroke-width="1" width="462" x="14" y="198"/>
<text font-family="Dialog" font-size="12" x="19" y="211">
PitFail (server side)</text>
<rect fill="none" height="232" stroke="#000000" stroke-width="1" width="511" x="14" y="221"/>
<polyline fill="none" points="286,150 286,126" stroke="#000000" stroke-width="1"/>
<line fill="#000000" stroke="#000000" stroke-width="1" x1="293" x2="286" y1="138" y2="126"/>
<line fill="#000000" stroke="#000000" stroke-width="1" x1="279" x2="286" y1="138" y2="126"/>
<polyline fill="none" points="230,126 230,150" stroke="#000000" stroke-width="1"/>
<line fill="#000000" stroke="#000000" stroke-width="1" x1="223" x2="230" y1="138" y2="150"/>
<line fill="#000000" stroke="#000000" stroke-width="1" x1="237" x2="230" y1="138" y2="150"/>
<polyline fill="none" points="278,102 278,78" stroke="#000000" stroke-width="1"/>
<line fill="#000000" stroke="#000000" stroke-width="1" x1="285" x2="278" y1="90" y2="78"/>
<line fill="#000000" stroke="#000000" stroke-width="1" x1="271" x2="278" y1="90" y2="78"/>
<text font-family="Dialog" font-size="12" x="287" y="94">
responds</text>
<polyline fill="none" points="230,78 230,102" stroke="#000000" stroke-width="1"/>
<line fill="#000000" stroke="#000000" stroke-width="1" x1="223" x2="230" y1="90" y2="102"/>
<line fill="#000000" stroke="#000000" stroke-width="1" x1="237" x2="230" y1="90" y2="102"/>
<text font-family="Dialog" font-size="12" x="129" y="93">
requests</text>
<polyline fill="none" points="254,38 254,54" stroke="#000000" stroke-width="1"/>
<rect fill="#ffffff" height="24" stroke="#ffffff" stroke-width="1" width="109" x="222" y="150"/>
<rect fill="none" height="24" stroke="#000000" stroke-width="1" width="109" x="222" y="150"/>
<text font-family="Dialog" font-size="12" x="227" y="163">
Web Framework</text>
<rect fill="#ffffff" height="24" stroke="#ffffff" stroke-width="1" width="81" x="222" y="102"/>
<rect fill="none" height="24" stroke="#000000" stroke-width="1" width="81" x="222" y="102"/>
<text font-family="Dialog" font-size="12" x="227" y="115">
Web Server</text>
<rect fill="#ffffff" height="24" stroke="#ffffff" stroke-width="1" width="66" x="222" y="54"/>
<rect fill="none" height="24" stroke="#000000" stroke-width="1" width="66" x="222" y="54"/>
<text font-family="Dialog" font-size="12" x="230" y="67">
Browser</text>
<rect fill="#ffffff" height="24" stroke="#ffffff" stroke-width="1" width="66" x="222" y="14"/>
<rect fill="none" height="24" stroke="#000000" stroke-width="1" width="66" x="222" y="14"/>
<text font-family="Dialog" font-size="12" x="240" y="27">
User</text>
<rect fill="#ffffff" height="24" stroke="#ffffff" stroke-width="1" width="90" x="214" y="334"/>
<rect fill="none" height="24" stroke="#000000" stroke-width="1" width="90" x="214" y="334"/>
<text font-family="Dialog" font-size="12" x="219" y="347">
Stock Trader</text>
<rect fill="#ffffff" height="24" stroke="#ffffff" stroke-width="1" width="104" x="350" y="270"/>
<rect fill="none" height="24" stroke="#000000" stroke-width="1" width="104" x="350" y="270"/>
<text font-family="Dialog" font-size="12" x="355" y="283">
Page Renderer</text>
<polyline fill="none" points="422,270 422,166 331,166" stroke="#000000" stroke-width="1"/>
<line fill="#000000" stroke="#000000" stroke-width="1" x1="343" x2="331" y1="159" y2="166"/>
<line fill="#000000" stroke="#000000" stroke-width="1" x1="343" x2="331" y1="173" y2="166"/>
<text font-family="Dialog" font-size="12" x="414" y="161">
informs</text>
<rect fill="#ffffff" height="24" stroke="#ffffff" stroke-width="1" width="66" x="222" y="406"/>
<rect fill="none" height="24" stroke="#000000" stroke-width="1" width="66" x="222" y="406"/>
<text font-family="Dialog" font-size="12" x="236" y="419">
Model</text>
<polyline fill="none" points="222,358 222,406" stroke="#000000" stroke-width="1"/>
<line fill="#000000" stroke="#000000" stroke-width="1" x1="215" x2="222" y1="394" y2="406"/>
<line fill="#000000" stroke="#000000" stroke-width="1" x1="229" x2="222" y1="394" y2="406"/>
<text font-family="Dialog" font-size="12" x="131" y="387">
manipulates</text>
<polyline fill="none" points="286,406 286,358" stroke="#000000" stroke-width="1"/>
<line fill="#000000" stroke="#000000" stroke-width="1" x1="293" x2="286" y1="370" y2="358"/>
<line fill="#000000" stroke="#000000" stroke-width="1" x1="279" x2="286" y1="370" y2="358"/>
<text font-family="Dialog" font-size="12" x="297" y="387">
informs</text>
<polyline fill="none" points="288,414 430,414 430,294" stroke="#000000" stroke-width="1"/>
<line fill="#000000" stroke="#000000" stroke-width="1" x1="437" x2="430" y1="306" y2="294"/>
<line fill="#000000" stroke="#000000" stroke-width="1" x1="423" x2="430" y1="306" y2="294"/>
<text font-family="Dialog" font-size="12" x="438" y="368">
informs</text>
<rect fill="#ffffff" height="32" stroke="#ffffff" stroke-width="1" width="93" x="22" y="318"/>
<rect fill="none" height="32" stroke="#000000" stroke-width="1" width="93" x="22" y="318"/>
<text font-family="Dialog" font-size="12" x="27" y="331">
Price Fetcher</text>
<polyline fill="none" points="214,334 115,334" stroke="#000000" stroke-width="1"/>
<line fill="#000000" stroke="#000000" stroke-width="1" x1="127" x2="115" y1="327" y2="334"/>
<line fill="#000000" stroke="#000000" stroke-width="1" x1="127" x2="115" y1="341" y2="334"/>
<text font-family="Dialog" font-size="12" x="132" y="329">
queries</text>
<polyline fill="none" points="115,334 214,334" stroke="#000000" stroke-width="1"/>
<line fill="#000000" stroke="#000000" stroke-width="1" x1="202" x2="214" y1="341" y2="334"/>
<line fill="#000000" stroke="#000000" stroke-width="1" x1="202" x2="214" y1="327" y2="334"/>
<text font-family="Dialog" font-size="12" x="133" y="349">
informs</text>
<rect fill="#ffffff" height="24" stroke="#ffffff" stroke-width="1" width="98" x="214" y="270"/>
<rect fill="none" height="24" stroke="#000000" stroke-width="1" width="98" x="214" y="270"/>
<text font-family="Dialog" font-size="12" x="219" y="283">
WebController</text>
<polyline fill="none" points="238,174 238,270" stroke="#000000" stroke-width="1"/>
<line fill="#000000" stroke="#000000" stroke-width="1" x1="231" x2="238" y1="258" y2="270"/>
<line fill="#000000" stroke="#000000" stroke-width="1" x1="245" x2="238" y1="258" y2="270"/>
<text font-family="Dialog" font-size="12" x="240" y="241">
delegates</text>
<polyline fill="none" points="312,278 350,278" stroke="#000000" stroke-width="1"/>
<line fill="#000000" stroke="#000000" stroke-width="1" x1="338" x2="350" y1="285" y2="278"/>
<line fill="#000000" stroke="#000000" stroke-width="1" x1="338" x2="350" y1="271" y2="278"/>
<text font-family="Dialog" font-size="12" x="313" y="269">
informs</text>
<polyline fill="none" points="230,294 230,334" stroke="#000000" stroke-width="1"/>
<line fill="#000000" stroke="#000000" stroke-width="1" x1="223" x2="230" y1="322" y2="334"/>
<line fill="#000000" stroke="#000000" stroke-width="1" x1="237" x2="230" y1="322" y2="334"/>
<text font-family="Dialog" font-size="12" x="233" y="319">
invokes</text>
<polyline fill="none" points="302,334 302,294" stroke="#000000" stroke-width="1"/>
<line fill="#000000" stroke="#000000" stroke-width="1" x1="309" x2="302" y1="306" y2="294"/>
<line fill="#000000" stroke="#000000" stroke-width="1" x1="295" x2="302" y1="306" y2="294"/>
<text font-family="Dialog" font-size="12" x="311" y="321">
informs</text>
</svg>
